{
	"asset":{
		"generator":"Khronos glTF Blender I/O v4.0.44",
		"version":"2.0"
	},
	"scene":0,
	"scenes":[
		{
			"name":"Scene",
			"nodes":[
				0
			]
		}
	],
	"nodes":[
		{
			"mesh":0,
			"name":"Cylinder"
		}
	],
	"materials":[
		{
			"doubleSided":true,
			"name":"Material.003",
			"pbrMetallicRoughness":{
				"baseColorFactor":[
					0.800000011920929,
					0.800000011920929,
					0.800000011920929,
					1
				],
				"roughnessFactor":0.15454545617103577
			}
		},
		{
			"doubleSided":true,
			"name":"Wrapper",
			"pbrMetallicRoughness":{
				"baseColorTexture":{
					"index":0
				},
				"roughnessFactor":0.2818181812763214
			}
		}
	],
	"meshes":[
		{
			"name":"Cylinder",
			"primitives":[
				{
					"attributes":{
						"POSITION":0,
						"NORMAL":1,
						"TEXCOORD_0":2
					},
					"indices":3,
					"material":0
				},
				{
					"attributes":{
						"POSITION":4,
						"NORMAL":5,
						"TEXCOORD_0":6
					},
					"indices":7,
					"material":1
				}
			]
		}
	],
	"textures":[
		{
			"sampler":0,
			"source":0
		}
	],
	"images":[
		{
			"mimeType":"image/jpeg",
			"name":"code-a-cola",
			"uri":"code-a-cola.jpg"
		}
	],
	"accessors":[
		{
			"bufferView":0,
			"componentType":5126,
			"count":2651,
			"max":[
				0.5146982669830322,
				2.1840648651123047,
				0.5146982669830322
			],
			"min":[
				-0.5146982073783875,
				0.04280245304107666,
				-0.5146982669830322
			],
			"type":"VEC3"
		},
		{
			"bufferView":1,
			"componentType":5126,
			"count":2651,
			"type":"VEC3"
		},
		{
			"bufferView":2,
			"componentType":5126,
			"count":2651,
			"type":"VEC2"
		},
		{
			"bufferView":3,
			"componentType":5123,
			"count":13260,
			"type":"SCALAR"
		},
		{
			"bufferView":4,
			"componentType":5126,
			"count":261,
			"max":[
				0.6360317468643188,
				2.1246933937072754,
				0.6360318064689636
			],
			"min":[
				-0.6360318064689636,
				0.08863595128059387,
				-0.6360318064689636
			],
			"type":"VEC3"
		},
		{
			"bufferView":5,
			"componentType":5126,
			"count":261,
			"type":"VEC3"
		},
		{
			"bufferView":6,
			"componentType":5126,
			"count":261,
			"type":"VEC2"
		},
		{
			"bufferView":7,
			"componentType":5123,
			"count":960,
			"type":"SCALAR"
		}
	],
	"bufferViews":[
		{
			"buffer":0,
			"byteLength":31812,
			"byteOffset":0,
			"target":34962
		},
		{
			"buffer":0,
			"byteLength":31812,
			"byteOffset":31812,
			"target":34962
		},
		{
			"buffer":0,
			"byteLength":21208,
			"byteOffset":63624,
			"target":34962
		},
		{
			"buffer":0,
			"byteLength":26520,
			"byteOffset":84832,
			"target":34963
		},
		{
			"buffer":0,
			"byteLength":3132,
			"byteOffset":111352,
			"target":34962
		},
		{
			"buffer":0,
			"byteLength":3132,
			"byteOffset":114484,
			"target":34962
		},
		{
			"buffer":0,
			"byteLength":2088,
			"byteOffset":117616,
			"target":34962
		},
		{
			"buffer":0,
			"byteLength":1920,
			"byteOffset":119704,
			"target":34963
		}
	],
	"samplers":[
		{
			"magFilter":9729,
			"minFilter":9987
		}
	],
	"buffers":[
		{
			"byteLength":121624,
			"uri":"can.bin"
		}
	]
}
