{
	"asset":{
		"generator":"Khronos glTF Blender I/O v4.0.44",
		"version":"2.0"
	},
	"scene":0,
	"scenes":[
		{
			"name":"Scene",
			"nodes":[
				0
			]
		}
	],
	"nodes":[
		{
			"mesh":0,
			"name":"Cube.001",
			"scale":[
				1,
				1,
				1.0152206420898438
			]
		}
	],
	"materials":[
		{
			"doubleSided":true,
			"name":"Material",
			"pbrMetallicRoughness":{
				"baseColorTexture":{
					"index":0
				},
				"metallicFactor":0,
				"roughnessFactor":0.5590909123420715
			}
		}
	],
	"meshes":[
		{
			"name":"Cube.001",
			"primitives":[
				{
					"attributes":{
						"POSITION":0,
						"NORMAL":1,
						"TEXCOORD_0":2
					},
					"indices":3,
					"material":0
				}
			]
		}
	],
	"textures":[
		{
			"sampler":0,
			"source":0
		}
	],
	"images":[
		{
			"mimeType":"image/jpeg",
			"name":"book",
			"uri":"book.jpg"
		}
	],
	"accessors":[
		{
			"bufferView":0,
			"componentType":5126,
			"count":54229,
			"max":[
				1.000000238418579,
				1.8818637132644653,
				0.3080771565437317
			],
			"min":[
				-1.000000238418579,
				-1.000000238418579,
				-0.3337526321411133
			],
			"type":"VEC3"
		},
		{
			"bufferView":1,
			"componentType":5126,
			"count":54229,
			"type":"VEC3"
		},
		{
			"bufferView":2,
			"componentType":5126,
			"count":54229,
			"type":"VEC2"
		},
		{
			"bufferView":3,
			"componentType":5123,
			"count":320634,
			"type":"SCALAR"
		}
	],
	"bufferViews":[
		{
			"buffer":0,
			"byteLength":650748,
			"byteOffset":0,
			"target":34962
		},
		{
			"buffer":0,
			"byteLength":650748,
			"byteOffset":650748,
			"target":34962
		},
		{
			"buffer":0,
			"byteLength":433832,
			"byteOffset":1301496,
			"target":34962
		},
		{
			"buffer":0,
			"byteLength":641268,
			"byteOffset":1735328,
			"target":34963
		}
	],
	"samplers":[
		{
			"magFilter":9729,
			"minFilter":9987
		}
	],
	"buffers":[
		{
			"byteLength":2376596,
			"uri":"book.bin"
		}
	]
}
