{
	"asset":{
		"generator":"Khronos glTF Blender I/O v4.0.44",
		"version":"2.0"
	},
	"scene":0,
	"scenes":[
		{
			"name":"Scene",
			"nodes":[
				0
			]
		}
	],
	"nodes":[
		{
			"mesh":0,
			"name":"Circle"
		}
	],
	"materials":[
		{
			"doubleSided":true,
			"name":"Material.001",
			"pbrMetallicRoughness":{
				"baseColorTexture":{
					"index":0
				},
				"metallicFactor":0.16363635659217834,
				"metallicRoughnessTexture":{
					"index":1
				}
			}
		},
		{
			"doubleSided":true,
			"name":"Material.002",
			"pbrMetallicRoughness":{
				"baseColorTexture":{
					"index":2
				},
				"metallicFactor":0.7590909004211426,
				"metallicRoughnessTexture":{
					"index":3
				}
			}
		},
		{
			"doubleSided":true,
			"name":"Material.003",
			"pbrMetallicRoughness":{
				"baseColorTexture":{
					"index":4
				},
				"metallicFactor":0,
				"roughnessFactor":0.5909091234207153
			}
		}
	],
	"meshes":[
		{
			"name":"Circle",
			"primitives":[
				{
					"attributes":{
						"POSITION":0,
						"NORMAL":1,
						"TEXCOORD_0":2
					},
					"indices":3,
					"material":0
				},
				{
					"attributes":{
						"POSITION":4,
						"NORMAL":5,
						"TEXCOORD_0":6
					},
					"indices":7,
					"material":1
				},
				{
					"attributes":{
						"POSITION":8,
						"NORMAL":9,
						"TEXCOORD_0":10
					},
					"indices":11,
					"material":2
				}
			]
		}
	],
	"textures":[
		{
			"sampler":0,
			"source":0
		},
		{
			"sampler":0,
			"source":1
		},
		{
			"sampler":0,
			"source":2
		},
		{
			"sampler":0,
			"source":3
		},
		{
			"sampler":0,
			"source":4
		}
	],
	"images":[
		{
			"mimeType":"image/jpeg",
			"name":"bugspray",
			"uri":"bugspray.jpg"
		},
		{
			"mimeType":"image/png",
			"name":"bugsprayroughness",
			"uri":"bugsprayroughness.png"
		},
		{
			"mimeType":"image/png",
			"name":"Untitled",
			"uri":"Untitled.png"
		},
		{
			"mimeType":"image/png",
			"name":"glossy",
			"uri":"glossy.png"
		},
		{
			"mimeType":"image/jpeg",
			"name":"spraynozzle",
			"uri":"spraynozzle.jpg"
		}
	],
	"accessors":[
		{
			"bufferView":0,
			"componentType":5126,
			"count":544,
			"max":[
				1.0058846473693848,
				5.503774166107178,
				1.0058848857879639
			],
			"min":[
				-1.005885124206543,
				0.036951303482055664,
				-1.0058850049972534
			],
			"type":"VEC3"
		},
		{
			"bufferView":1,
			"componentType":5126,
			"count":544,
			"type":"VEC3"
		},
		{
			"bufferView":2,
			"componentType":5126,
			"count":544,
			"type":"VEC2"
		},
		{
			"bufferView":3,
			"componentType":5123,
			"count":1902,
			"type":"SCALAR"
		},
		{
			"bufferView":4,
			"componentType":5126,
			"count":905,
			"max":[
				1.0238605737686157,
				5.480196952819824,
				1.0238605737686157
			],
			"min":[
				-1.0238608121871948,
				0.00815647467970848,
				-1.0238606929779053
			],
			"type":"VEC3"
		},
		{
			"bufferView":5,
			"componentType":5126,
			"count":905,
			"type":"VEC3"
		},
		{
			"bufferView":6,
			"componentType":5126,
			"count":905,
			"type":"VEC2"
		},
		{
			"bufferView":7,
			"componentType":5123,
			"count":4722,
			"type":"SCALAR"
		},
		{
			"bufferView":8,
			"componentType":5126,
			"count":131,
			"max":[
				0.18435658514499664,
				5.97901725769043,
				0.18435662984848022
			],
			"min":[
				-0.18435664474964142,
				5.503774166107178,
				-0.18435662984848022
			],
			"type":"VEC3"
		},
		{
			"bufferView":9,
			"componentType":5126,
			"count":131,
			"type":"VEC3"
		},
		{
			"bufferView":10,
			"componentType":5126,
			"count":131,
			"type":"VEC2"
		},
		{
			"bufferView":11,
			"componentType":5123,
			"count":480,
			"type":"SCALAR"
		}
	],
	"bufferViews":[
		{
			"buffer":0,
			"byteLength":6528,
			"byteOffset":0,
			"target":34962
		},
		{
			"buffer":0,
			"byteLength":6528,
			"byteOffset":6528,
			"target":34962
		},
		{
			"buffer":0,
			"byteLength":4352,
			"byteOffset":13056,
			"target":34962
		},
		{
			"buffer":0,
			"byteLength":3804,
			"byteOffset":17408,
			"target":34963
		},
		{
			"buffer":0,
			"byteLength":10860,
			"byteOffset":21212,
			"target":34962
		},
		{
			"buffer":0,
			"byteLength":10860,
			"byteOffset":32072,
			"target":34962
		},
		{
			"buffer":0,
			"byteLength":7240,
			"byteOffset":42932,
			"target":34962
		},
		{
			"buffer":0,
			"byteLength":9444,
			"byteOffset":50172,
			"target":34963
		},
		{
			"buffer":0,
			"byteLength":1572,
			"byteOffset":59616,
			"target":34962
		},
		{
			"buffer":0,
			"byteLength":1572,
			"byteOffset":61188,
			"target":34962
		},
		{
			"buffer":0,
			"byteLength":1048,
			"byteOffset":62760,
			"target":34962
		},
		{
			"buffer":0,
			"byteLength":960,
			"byteOffset":63808,
			"target":34963
		}
	],
	"samplers":[
		{
			"magFilter":9729,
			"minFilter":9987
		}
	],
	"buffers":[
		{
			"byteLength":64768,
			"uri":"bug%20spray.bin"
		}
	]
}
